<svg width="28" height="41" viewBox="0 0 28 41" fill="none" xmlns="http://www.w3.org/2000/svg">
<path d="M20.7933 27.1669C24.4752 27.1669 27.46 24.1821 27.46 20.5002C27.46 16.8183 24.4752 13.8335 20.7933 13.8335C17.1114 13.8335 14.1266 16.8183 14.1266 20.5002C14.1266 24.1821 17.1114 27.1669 20.7933 27.1669Z" fill="#19BCFE"/>
<path fill-rule="evenodd" clip-rule="evenodd" d="M7.4599 40.5C9.22802 40.5 10.9237 39.7976 12.174 38.5474C13.4242 37.2971 14.1266 35.6014 14.1266 33.8333V27.1666H7.4599C5.69179 27.1666 3.99609 27.869 2.74584 29.1193C1.49559 30.3695 0.793213 32.0652 0.793213 33.8333C0.793213 35.6014 1.49559 37.2971 2.74584 38.5474C3.99609 39.7976 5.69179 40.5 7.4599 40.5Z" fill="#09CF83"/>
<path fill-rule="evenodd" clip-rule="evenodd" d="M7.4599 27.1669H14.1266V13.8335H7.4599C5.69179 13.8335 3.99609 14.5359 2.74584 15.7861C1.49559 17.0364 0.793213 18.7321 0.793213 20.5002C0.793213 22.2683 1.49559 23.964 2.74584 25.2142C3.99609 26.4645 5.69179 27.1669 7.4599 27.1669Z" fill="#A259FF"/>
<path fill-rule="evenodd" clip-rule="evenodd" d="M7.4599 13.8334H14.1266V0.5H7.4599C5.69179 0.5 3.99609 1.20238 2.74584 2.45263C1.49559 3.70287 0.793213 5.39857 0.793213 7.16669C0.793213 8.9348 1.49559 10.6305 2.74584 11.8807C3.99609 13.131 5.69179 13.8334 7.4599 13.8334Z" fill="#F24E1E"/>
<path fill-rule="evenodd" clip-rule="evenodd" d="M20.7933 13.8334H14.1266V0.5H20.7933C22.5614 0.5 24.2571 1.20238 25.5073 2.45263C26.7576 3.70287 27.46 5.39857 27.46 7.16669C27.46 8.9348 26.7576 10.6305 25.5073 11.8807C24.2571 13.131 22.5614 13.8334 20.7933 13.8334Z" fill="#FF7262"/>
</svg>
