<svg width="41" height="41" viewBox="0 0 41 41" fill="none" xmlns="http://www.w3.org/2000/svg">
<path d="M20.2438 0.500602C19.6288 0.490568 19.0181 0.606017 18.4478 0.840115C17.8776 1.07421 17.3593 1.4222 16.9238 1.86347L2.21596 17.1649C-3.35666 22.8209 5.82228 22.3509 9.1361 24.4949C10.6724 25.5136 4.2135 26.8167 5.52977 28.1593C6.81855 29.5018 13.2837 30.7326 14.5662 32.0421C15.855 33.3783 11.9624 34.7945 13.2449 36.1371C14.495 37.4796 17.4963 36.2095 18.03 39.2527C18.4213 41.5022 23.5314 40.3844 25.8164 38.4589C27.2427 37.2218 23.3489 37.2218 24.6377 35.8792C27.854 32.5781 30.7053 34.397 31.8841 31.3474C32.5291 29.7203 27.0277 28.5556 28.4915 27.5039C31.9941 25.003 44.8456 23.7328 38.9217 17.7136L23.6739 1.86347C22.7442 0.979195 21.516 0.491339 20.2426 0.500602H20.2438ZM20.3676 1.95619C21.2526 1.96254 22.1389 2.29405 22.7764 2.94182L28.5965 8.96866C29.1365 9.51101 29.1365 10.6364 28.8115 10.9602L25.9202 8.57238L25.3477 12.0919L22.9589 10.7824L19.065 13.2833L17.7825 8.03129L15.7125 12.5962L10.5299 12.5632C9.5336 12.5632 9.67736 11.5115 10.7124 10.4598C12.7437 8.17101 16.7087 4.29453 17.9588 2.95198C18.6038 2.27754 19.4826 1.95365 20.3676 1.96V1.95619ZM36.6317 29.5158C35.3941 29.5615 34.1379 30.1903 33.8128 31.3486C33.8128 32.1094 39.633 32.5464 39.3142 31.1695C39.0792 30.0048 37.8692 29.4688 36.6317 29.5158ZM11.0511 32.8106C9.3711 32.9096 7.57481 34.1531 8.99984 35.3712C10.3149 36.5359 12.3199 35.1197 12.9587 33.4926C12.5612 32.9566 11.8199 32.7648 11.0574 32.8182H11.0511V32.8106ZM33.1028 32.9427C31.4553 34.4643 33.3828 36.0647 34.9904 35.013C35.4204 34.7158 34.9579 33.3059 33.1028 32.9427Z" fill="black"/>
</svg>
