<svg width="40" height="41" viewBox="0 0 40 41" fill="none" xmlns="http://www.w3.org/2000/svg">
<path d="M0 35.3423C0 38.1911 2.30922 40.5 5.15766 40.5H34.8422C37.6911 40.5 40 38.1908 40 35.3423V5.65781C40 2.80891 37.6908 0.5 34.8423 0.5H5.15781C2.30891 0.5 0 2.80922 0 5.65766V35.3422V35.3423Z" fill="#563D7C"/>
<path d="M16.5872 18.1934V12.5289H21.5733C22.0483 12.5289 22.5061 12.5684 22.947 12.6477C23.388 12.7267 23.7781 12.868 24.1173 13.0716C24.4564 13.2752 24.7278 13.5578 24.9314 13.9195C25.1348 14.2814 25.2367 14.745 25.2367 15.3102C25.2367 16.3278 24.9314 17.0628 24.3208 17.515C23.7103 17.9673 22.9302 18.1934 21.9803 18.1934H16.5872ZM11.2617 8.39062V32.6094H22.998C24.0834 32.6094 25.1406 32.4738 26.1695 32.2023C27.1984 31.9309 28.1142 31.5127 28.917 30.9473C29.7197 30.382 30.3586 29.6527 30.8334 28.7595C31.3084 27.8662 31.5458 26.8091 31.5458 25.588C31.5458 24.0728 31.1783 22.7783 30.4434 21.7042C29.7084 20.63 28.5947 19.8781 27.1022 19.4484C28.1877 18.9284 29.0075 18.2612 29.5616 17.4472C30.1155 16.6331 30.3925 15.6156 30.3925 14.3944C30.3925 13.2638 30.2059 12.3141 29.8328 11.5452C29.4597 10.7764 28.9339 10.1602 28.2555 9.69656C27.5772 9.23297 26.7631 8.89937 25.8133 8.69594C24.8636 8.49234 23.812 8.39062 22.6588 8.39062H11.2617ZM16.5872 28.4711V21.8228H22.3873C23.5406 21.8228 24.4678 22.0884 25.1689 22.62C25.8698 23.1514 26.2205 24.0389 26.2205 25.2827C26.2205 25.9159 26.113 26.4359 25.8981 26.843C25.6833 27.25 25.395 27.5723 25.0331 27.8097C24.6714 28.0472 24.253 28.2167 23.7781 28.3186C23.3031 28.4202 22.8058 28.4711 22.2856 28.4711H16.5872Z" fill="white"/>
</svg>
