<svg width="36" height="41" viewBox="0 0 36 41" fill="none" xmlns="http://www.w3.org/2000/svg">
<path d="M3.66996 36.5014L0.459961 0.5H35.7314L32.5171 36.4957L18.0742 40.5L3.66996 36.5014Z" fill="#E44F26"/>
<path d="M18.0956 37.44L29.767 34.2043L32.5127 3.44431H18.0956V37.44Z" fill="#F1662A"/>
<path d="M18.0956 16.7957H12.2527L11.8499 12.2743H18.0956V7.85858H7.02417L7.12988 9.0443L8.21417 21.2114H18.0956V16.7957Z" fill="#EBEBEB"/>
<path d="M18.0955 28.2628L18.0755 28.2686L13.1584 26.9414L12.8441 23.42H8.41125L9.02983 30.3514L18.0755 32.8628L18.0955 32.8571V28.2628Z" fill="#EBEBEB"/>
<path d="M18.08 16.7957V21.2114H23.5171L23.0057 26.9386L18.08 28.2671V32.8614L27.1328 30.3514L27.1985 29.6057L28.2357 17.9814L28.3442 16.7957H18.08Z" fill="white"/>
<path d="M18.08 7.85858V12.2743H28.7457L28.8342 11.2829L29.0357 9.0443L29.1414 7.85858H18.08Z" fill="white"/>
</svg>
