<svg width="77" height="41" viewBox="0 0 77 41" fill="none" xmlns="http://www.w3.org/2000/svg">
<path d="M38.8941 40.5C59.9023 40.5 76.9327 31.5457 76.9327 20.5C76.9327 9.45431 59.9023 0.5 38.8941 0.5C17.8859 0.5 0.855469 9.45431 0.855469 20.5C0.855469 31.5457 17.8859 40.5 38.8941 40.5Z" fill="url(#paint0_radial_269:439)"/>
<path d="M38.8941 39.0141C59.0816 39.0141 75.4468 30.7251 75.4468 20.5C75.4468 10.275 59.0816 1.9859 38.8941 1.9859C18.7065 1.9859 2.34131 10.275 2.34131 20.5C2.34131 30.7251 18.7065 39.0141 38.8941 39.0141Z" fill="#6181B6"/>
<path d="M46.2938 26.5029L48.1066 17.1716C48.5227 15.0616 48.1661 13.4866 47.0962 12.5059C46.0561 11.555 44.273 11.0795 41.6579 11.0795H38.5078L39.3993 6.44351C39.4291 6.2652 39.3993 6.0869 39.2805 5.93831C39.1616 5.78972 39.013 5.73029 38.8347 5.73029H34.4959C34.1987 5.73029 33.961 5.93831 33.9016 6.20577L31.9699 16.1018C31.7916 14.9725 31.3756 14.0215 30.6623 13.2489C29.3845 11.7927 27.3934 11.0498 24.6891 11.0498H16.3384C16.0412 11.0498 15.8035 11.2578 15.7441 11.5252L11.8511 31.6144C11.8213 31.7927 11.8511 31.971 11.9699 32.1196C12.0888 32.2682 12.2374 32.3276 12.4157 32.3276H16.7842C17.0814 32.3276 17.3191 32.1196 17.3785 31.8521L18.3295 27.0081H21.5687C23.2626 27.0081 24.7188 26.8298 25.8184 26.4732C26.9774 26.0869 28.0175 25.4628 28.9387 24.601C29.6817 23.9175 30.3057 23.1448 30.7812 22.3128L30.0086 26.3246C29.9788 26.5029 30.0086 26.6813 30.1274 26.8298C30.2463 26.9784 30.3949 27.0379 30.5732 27.0379H34.912C35.2091 27.0379 35.4469 26.8298 35.5063 26.5624L37.646 15.5668H40.6178C41.8956 15.5668 42.2522 15.8046 42.3711 15.9235C42.4603 16.0126 42.6386 16.3692 42.4305 17.4688L40.7069 26.3544C40.6772 26.5327 40.7069 26.711 40.8258 26.8596C40.9447 27.0081 41.0932 27.0676 41.2716 27.0676H45.7292C45.9967 26.9784 46.2344 26.7704 46.2938 26.5029ZM26.2047 18.7763C25.9372 20.1731 25.432 21.1835 24.6891 21.7481C23.9461 22.3128 22.7277 22.6099 21.123 22.6099H19.1913L20.588 15.4182H23.0843C24.9268 15.4182 25.6698 15.8046 25.9669 16.1315C26.3533 16.607 26.4424 17.5282 26.2047 18.7763Z" fill="white"/>
<path d="M64.8377 13.2489C63.5599 11.7927 61.5688 11.0497 58.8645 11.0497H50.4544C50.1572 11.0497 49.9195 11.2578 49.86 11.5252L45.967 31.5847C45.9373 31.763 45.967 31.9413 46.0859 32.0899C46.2048 32.2385 46.3533 32.2979 46.5317 32.2979H50.9001C51.1973 32.2979 51.4351 32.0899 51.4945 31.8224L52.4455 26.9784H55.6847C57.3786 26.9784 58.8348 26.8001 59.9343 26.4435C61.0933 26.0572 62.1334 25.4331 63.0547 24.5713C63.8273 23.8581 64.4811 23.0557 64.9566 22.1939C65.4321 21.3321 65.7887 20.3811 65.9967 19.341C66.5019 16.7555 66.1156 14.7347 64.8377 13.2489ZM60.2909 18.7763C60.0235 20.1731 59.5183 21.1835 58.7753 21.7481C58.0324 22.3127 56.814 22.6099 55.2092 22.6099H53.2776L54.6743 15.4182H57.1706C59.0131 15.4182 59.756 15.8046 60.0532 16.1315C60.4692 16.6069 60.5584 17.5282 60.2909 18.7763Z" fill="white"/>
<path d="M23.0842 14.8239C24.7484 14.8239 25.848 15.1211 26.4126 15.7451C26.9773 16.3692 27.0961 17.4093 26.799 18.8952C26.5018 20.4405 25.9074 21.5698 25.0456 22.2236C24.1838 22.8774 22.8762 23.2043 21.1229 23.2043H18.478L20.1125 14.8239H23.0842ZM12.4453 31.7035H16.8138L17.8539 26.3841H21.5984C23.2625 26.3841 24.5998 26.2058 25.6697 25.8492C26.7395 25.4925 27.6905 24.9279 28.582 24.0958C29.325 23.4123 29.9193 22.6694 30.3651 21.867C30.8108 21.0646 31.1377 20.1731 31.316 19.1924C31.7915 16.815 31.4349 14.9725 30.2759 13.6352C29.1169 12.2979 27.2744 11.6441 24.7484 11.6441H16.3383L12.4453 31.7035Z" fill="#000004"/>
<path d="M34.5256 6.32465H38.8644L37.8242 11.6441H41.6875C44.1244 11.6441 45.7886 12.0602 46.7098 12.922C47.6311 13.7838 47.8985 15.1508 47.5419 17.0527L45.7292 26.3841H41.3309L43.0546 17.4985C43.2626 16.4881 43.1734 15.8046 42.8465 15.448C42.5196 15.0914 41.7767 14.8833 40.6771 14.8833H37.2002L34.9714 26.3841H30.6326L34.5256 6.32465Z" fill="#000004"/>
<path d="M57.1704 14.8239C58.8346 14.8239 59.9342 15.1211 60.4988 15.7451C61.0634 16.3692 61.1823 17.4093 60.8851 18.8952C60.588 20.4405 59.9936 21.5698 59.1318 22.2236C58.27 22.8774 56.9624 23.2043 55.2091 23.2043H52.5642L54.1987 14.8239H57.1704ZM46.5315 31.7035H50.9L51.9401 26.3841H55.6845C57.3487 26.3841 58.686 26.2058 59.7559 25.8492C60.8257 25.4925 61.7767 24.9279 62.6682 24.0958C63.4111 23.4123 64.0055 22.6694 64.4513 21.867C64.897 21.0646 65.2239 20.1731 65.4022 19.1924C65.8777 16.815 65.5211 14.9725 64.3621 13.6352C63.2031 12.2979 61.3606 11.6441 58.8346 11.6441H50.4245L46.5315 31.7035Z" fill="#000004"/>
<defs>
<radialGradient id="paint0_radial_269:439" cx="0" cy="0" r="1" gradientUnits="userSpaceOnUse" gradientTransform="translate(23.694 7.53344) scale(49.9541)">
<stop stop-color="white"/>
<stop offset="0.5" stop-color="#4C6B97"/>
<stop offset="1" stop-color="#231F20"/>
</radialGradient>
</defs>
</svg>
