<svg width="42" height="41" viewBox="0 0 42 41" fill="none" xmlns="http://www.w3.org/2000/svg">
<path d="M17.3761 14.3803C16.7344 14.1288 16.0477 14.0124 15.359 14.0385C14.7377 14.0255 14.1161 14.0369 13.4957 14.0726V19.8162L14.1624 19.8504H15.0684C15.735 19.8504 16.4017 19.7479 17.0342 19.5427C17.5812 19.3889 18.0598 19.0641 18.4359 18.6368C18.7949 18.2094 18.9658 17.6282 18.9658 16.8761C19.0044 16.3444 18.8706 15.8145 18.5842 15.3649C18.2978 14.9154 17.8742 14.5701 17.3761 14.3803ZM33.7863 0.5H7.29059C5.36381 0.5 3.51593 1.26541 2.15349 2.62786C0.791048 3.9903 0.0256348 5.83817 0.0256348 7.76496L0.0256348 33.235C0.0256348 37.2521 3.2735 40.5 7.29059 40.5H33.7863C37.8034 40.5 41.0513 37.2521 41.0513 33.235V7.76496C41.0513 3.74786 37.8034 0.5 33.7863 0.5ZM21.6667 20.4145C20.9829 21.3718 20.0256 22.0897 18.9145 22.5C17.7521 22.9273 16.4701 23.0812 15.0684 23.0812L14.2137 23.0641L13.4786 23.047V28.5342C13.4835 28.5625 13.4823 28.5914 13.4753 28.6192C13.4683 28.647 13.4555 28.673 13.4377 28.6956C13.42 28.7181 13.3978 28.7367 13.3724 28.7502C13.3471 28.7636 13.3192 28.7715 13.2906 28.7735H9.97435C9.8376 28.7735 9.76922 28.7051 9.76922 28.5513V10.9615C9.76922 10.8419 9.82051 10.7735 9.94016 10.7735L10.8974 10.7564L12.1966 10.7222L13.6838 10.688L15.2393 10.6709C16.641 10.6709 17.8034 10.8419 18.7607 11.2009C19.6154 11.4915 20.4017 11.9701 21.0513 12.6026C21.5983 13.1496 22.0256 13.8162 22.2991 14.5513C22.5555 15.2692 22.6923 16.0043 22.6923 16.7735C22.6923 18.2436 22.3504 19.4573 21.6667 20.4145ZM33.3248 15.0299V18.3632C33.3248 18.5 33.2393 18.5513 33.0513 18.5513C31.9234 18.5103 30.8011 18.7266 29.7692 19.1838C29.4444 19.3376 29.1367 19.5427 28.8974 19.8162V28.5342C28.8974 28.7051 28.8291 28.7735 28.6752 28.7735H25.3077C25.2762 28.7783 25.2441 28.7768 25.2132 28.7691C25.1823 28.7613 25.1533 28.7475 25.1278 28.7284C25.1024 28.7093 25.081 28.6853 25.0649 28.6578C25.0488 28.6303 25.0384 28.5999 25.0342 28.5684V19.0299L25.0171 17.7479L24.9829 16.4145C24.9829 16.0214 24.9487 15.6453 24.9145 15.2521C24.9087 15.2117 24.9175 15.1704 24.9395 15.1359C24.9614 15.1014 24.995 15.0759 25.0342 15.0641H28.0769C28.2479 15.0641 28.3846 15.1838 28.4188 15.3376C28.5733 15.8473 28.6482 16.3777 28.641 16.9103C29.1538 16.312 29.7863 15.8162 30.4872 15.4402C31.2818 14.9988 32.1765 14.7692 33.0855 14.7735C33.2051 14.7564 33.3077 14.8419 33.3248 14.9615V15.0299Z" fill="#46004D"/>
</svg>
