<svg width="23" height="18" viewBox="0 0 23 18" fill="none" xmlns="http://www.w3.org/2000/svg">
<path d="M22.5643 5.75363C22.7395 5.61297 23 5.74455 23 5.9669V15.2462C23 16.4487 22.0342 17.4242 20.8438 17.4242H2.15625C0.96582 17.4242 0 16.4487 0 15.2462V5.97143C0 5.74455 0.256055 5.6175 0.435742 5.75817C1.44199 6.5477 2.77617 7.55051 7.3582 10.9128C8.30606 11.6116 9.90527 13.0818 11.5 13.0727C13.1037 13.0863 14.7344 11.5844 15.6463 10.9128C20.2283 7.55051 21.558 6.54317 22.5643 5.75363ZM11.5 11.6162C12.5422 11.6343 14.0426 10.2912 14.7973 9.73761C20.7584 5.36794 21.2121 4.98678 22.5867 3.89777C22.8473 3.69358 23 3.37595 23 3.04017V2.17803C23 0.975576 22.0342 0 20.8438 0H2.15625C0.96582 0 0 0.975576 0 2.17803V3.04017C0 3.37595 0.152734 3.68904 0.413281 3.89777C1.78789 4.98224 2.2416 5.36794 8.20273 9.73761C8.95742 10.2912 10.4578 11.6343 11.5 11.6162Z" fill="#D3D3D3"/>
</svg>
