<svg width="47" height="41" viewBox="0 0 47 41" fill="none" xmlns="http://www.w3.org/2000/svg">
<path d="M38.349 0.502655C38.1445 0.471782 37.9091 0.709115 37.7239 1.26868C37.4209 2.17556 35.6535 7.44898 27.1037 9.61585C28.2537 10.6038 28.9869 12.0123 28.9869 13.5888C28.9869 16.5738 26.3936 18.9915 23.1983 18.9915C20.0049 18.9915 17.4155 16.5718 17.4136 13.5888C17.4136 12.4253 17.8149 11.3544 18.4844 10.4706C12.4354 9.84933 9.82083 4.4447 9.82083 4.4447L9.6356 12.4774C9.58736 13.5656 9.61823 14.6211 9.11462 15.6341C9.0829 15.5875 9.05074 15.5412 9.01815 15.4951C8.30844 14.5076 7.41537 13.6836 6.44244 13.1188C5.4695 12.5539 4.45652 12.2713 3.5209 12.3037C2.78394 12.3291 2.11616 12.5493 1.56628 12.9482C0.585831 13.6576 0.0409246 14.8886 0.0514183 16.3704C0.061912 17.8522 0.626946 19.4634 1.62224 20.8496C2.44654 21.9969 3.51493 22.9189 4.66255 23.4733C5.81017 24.0278 6.97326 24.1839 7.97234 23.9176C13.7552 28.2011 24.3387 31.9213 31.5725 27.5547L27.6652 24.4115C25.6122 25.0772 22.6407 25.0676 19.181 23.8423C24.7767 24.9653 27.806 23.7401 29.4732 22.4492C29.0332 21.8781 28.1032 21.4343 28.1032 21.4343C28.1032 21.4343 29.1895 21.6407 29.8977 22.3913C30.1813 22.6904 30.2797 23.138 30.3183 23.6513C31.3853 24.2263 32.6009 24.9171 33.9362 25.7005C37.911 21.7256 40.2129 14.2525 38.7986 1.35551C38.7311 0.836465 38.5536 0.535457 38.349 0.502655ZM13.2786 11.0379C15.3065 11.036 16.9505 12.5719 16.9505 14.4667C16.9505 16.3577 15.3046 17.8936 13.2786 17.8916C11.2525 17.8916 9.61244 16.3577 9.61244 14.4667C9.61244 12.5738 11.2525 11.0379 13.2786 11.036V11.0379ZM24.4236 11.968C24.0878 11.9677 23.7553 12.0336 23.445 12.1618C23.1347 12.2901 22.8528 12.4782 22.6152 12.7154C22.3776 12.9526 22.1891 13.2343 22.0603 13.5444C21.9316 13.8545 21.8652 14.1869 21.865 14.5227C21.8647 14.8584 21.9306 15.1909 22.0589 15.5012C22.1871 15.8115 22.3752 16.0935 22.6125 16.331C22.8497 16.5686 23.1314 16.7572 23.4415 16.8859C23.7516 17.0146 24.084 17.081 24.4197 17.0812C25.0978 17.0817 25.7483 16.8129 26.2281 16.3338C26.7079 15.8547 26.9778 15.2046 26.9783 14.5265C26.9788 13.8485 26.7099 13.198 26.2308 12.7181C25.7517 12.2383 25.1016 11.9685 24.4236 11.968ZM3.31058 13.2009C3.31187 13.2009 3.31315 13.2009 3.31444 13.2009C3.32795 13.2008 3.34145 13.2008 3.35496 13.2009C3.59972 13.2007 3.84213 13.2479 4.06828 13.3398C4.29443 13.4318 4.49989 13.5667 4.67287 13.7368C4.84585 13.9069 4.98295 14.1089 5.07632 14.3312C5.16968 14.5534 5.21748 14.7916 5.21696 15.0321C5.21696 15.2722 5.16879 15.5099 5.07519 15.7318C4.98159 15.9536 4.8444 16.1551 4.67148 16.3248C4.49855 16.4945 4.29327 16.6291 4.06737 16.7208C3.84147 16.8125 3.59939 16.8596 3.35496 16.8593C2.86231 16.8583 2.39018 16.6654 2.04218 16.3228C1.69419 15.9802 1.49875 15.516 1.49875 15.0321C1.49705 14.5542 1.68597 14.0947 2.02501 13.7521C2.36405 13.4094 2.82624 13.2109 3.31251 13.199L3.31058 13.2009ZM14.0369 13.4383C13.824 13.4408 13.6138 13.4852 13.4181 13.569C13.2224 13.6528 13.0451 13.7743 12.8964 13.9266C12.7477 14.0789 12.6305 14.259 12.5513 14.4566C12.4722 14.6543 12.4328 14.8655 12.4354 15.0784C12.4379 15.2912 12.4823 15.5015 12.5661 15.6972C12.6499 15.8928 12.7714 16.0701 12.9237 16.2188C13.076 16.3675 13.2561 16.4848 13.4537 16.5639C13.6513 16.643 13.8626 16.6824 14.0755 16.6799C14.5053 16.6748 14.9156 16.4991 15.2159 16.1915C15.5162 15.8839 15.6821 15.4696 15.677 15.0398C15.6719 14.6099 15.4962 14.1997 15.1886 13.8993C14.881 13.599 14.4667 13.4331 14.0369 13.4383ZM29.9748 23.0165C29.8919 23.1187 29.7761 23.2075 29.6738 23.3001L30.079 23.522C30.0462 23.3291 30.0154 23.1168 29.9748 23.0165ZM28.9136 23.2094L27.4992 23.906L27.615 24.0025L27.9971 24.3054L31.8446 27.4042L31.8735 27.4274C33.1142 28.4194 34.3698 29.3927 35.6399 30.3468C35.6252 30.4276 35.62 30.5098 35.6245 30.5918L36.1262 30.5147L36.3249 30.8079L40.7957 33.6482C40.5641 34.4393 40.6702 35.4871 41.1951 36.4596C42.7194 39.2863 46.3605 40.5 46.3605 40.5C44.8728 36.7027 45.9572 33.6135 43.0224 32.5252C42.5554 32.3516 42.1483 32.3458 41.8087 32.4616L37.8589 28.8051L37.5232 28.7048L37.4749 28.1992C37.3949 28.2309 37.3174 28.269 37.2434 28.3131C36.653 27.8114 35.9178 27.2769 35.1402 26.7405C32.5083 25.1293 30.7852 24.2321 28.9117 23.2094H28.9136Z" fill="black"/>
</svg>
