<svg width="30" height="25" viewBox="0 0 30 25" fill="none" xmlns="http://www.w3.org/2000/svg">
<path fill-rule="evenodd" clip-rule="evenodd" d="M0 2.08333C0 1.5308 0.219493 1.0009 0.610194 0.610195C1.00089 0.219494 1.5308 0 2.08333 0H27.0833C27.6359 0 28.1658 0.219494 28.5565 0.610195C28.9472 1.0009 29.1667 1.5308 29.1667 2.08333C29.1667 2.63587 28.9472 3.16577 28.5565 3.55647C28.1658 3.94717 27.6359 4.16667 27.0833 4.16667H2.08333C1.5308 4.16667 1.00089 3.94717 0.610194 3.55647C0.219493 3.16577 0 2.63587 0 2.08333Z" fill="white"/>
<path fill-rule="evenodd" clip-rule="evenodd" d="M0 12.5C0 11.9475 0.219493 11.4176 0.610194 11.0269C1.00089 10.6362 1.5308 10.4167 2.08333 10.4167H27.0833C27.6359 10.4167 28.1658 10.6362 28.5565 11.0269C28.9472 11.4176 29.1667 11.9475 29.1667 12.5C29.1667 13.0526 28.9472 13.5825 28.5565 13.9732C28.1658 14.3639 27.6359 14.5834 27.0833 14.5834H2.08333C1.5308 14.5834 1.00089 14.3639 0.610194 13.9732C0.219493 13.5825 0 13.0526 0 12.5Z" fill="white"/>
<path fill-rule="evenodd" clip-rule="evenodd" d="M0 22.9166C0 22.3641 0.219493 21.8342 0.610194 21.4435C1.00089 21.0528 1.5308 20.8333 2.08333 20.8333H14.5833C15.1359 20.8333 15.6658 21.0528 16.0565 21.4435C16.4472 21.8342 16.6667 22.3641 16.6667 22.9166C16.6667 23.4692 16.4472 23.9991 16.0565 24.3898C15.6658 24.7805 15.1359 25 14.5833 25H2.08333C1.5308 25 1.00089 24.7805 0.610194 24.3898C0.219493 23.9991 0 23.4692 0 22.9166Z" fill="white"/>
</svg>
