<svg width="20" height="23" viewBox="0 0 20 23" fill="none" xmlns="http://www.w3.org/2000/svg">
<path d="M15.6071 5.75C15.6071 7.27499 15.0013 8.73753 13.923 9.81586C12.8447 10.8942 11.3821 11.5 9.85714 11.5C8.33215 11.5 6.86961 10.8942 5.79128 9.81586C4.71294 8.73753 4.10714 7.27499 4.10714 5.75C4.10714 4.22501 4.71294 2.76247 5.79128 1.68414C6.86961 0.605802 8.33215 0 9.85714 0C11.3821 0 12.8447 0.605802 13.923 1.68414C15.0013 2.76247 15.6071 4.22501 15.6071 5.75ZM13.9643 5.75C13.9643 4.66072 13.5316 3.61605 12.7613 2.84581C11.9911 2.07557 10.9464 1.64286 9.85714 1.64286C8.76786 1.64286 7.72319 2.07557 6.95295 2.84581C6.18272 3.61605 5.75 4.66072 5.75 5.75C5.75 6.83928 6.18272 7.88395 6.95295 8.65419C7.72319 9.42443 8.76786 9.85714 9.85714 9.85714C10.9464 9.85714 11.9911 9.42443 12.7613 8.65419C13.5316 7.88395 13.9643 6.83928 13.9643 5.75ZM2.875 13.1429C2.1125 13.1429 1.38124 13.4458 0.842068 13.9849C0.302901 14.5241 0 15.2554 0 16.0179V16.4286C0 18.3943 1.25104 20.0568 3.02696 21.1871C4.81275 22.324 7.23021 23 9.85714 23C12.4841 23 14.9007 22.324 16.6873 21.1871C18.4632 20.0568 19.7143 18.3943 19.7143 16.4286V16.0179C19.7143 15.2554 19.4114 14.5241 18.8722 13.9849C18.333 13.4458 17.6018 13.1429 16.8393 13.1429H2.875ZM1.64286 16.0179C1.64286 15.6911 1.77267 15.3777 2.00374 15.1466C2.23481 14.9155 2.54822 14.7857 2.875 14.7857H16.8393C17.1661 14.7857 17.4795 14.9155 17.7105 15.1466C17.9416 15.3777 18.0714 15.6911 18.0714 16.0179V16.4286C18.0714 17.6385 17.2993 18.851 15.8051 19.8014C14.3208 20.746 12.2204 21.3571 9.85714 21.3571C7.49389 21.3571 5.3935 20.746 3.90918 19.8014C2.41418 18.8518 1.64286 17.6377 1.64286 16.4286V16.0179Z" fill="#D3D3D3"/>
</svg>
