<svg width="42" height="41" viewBox="0 0 42 41" fill="none" xmlns="http://www.w3.org/2000/svg">
<path d="M17.5051 14.3809C16.8726 14.1245 16.1888 14.0219 15.4879 14.039C15.0434 14.039 14.6503 14.039 14.3254 14.0561C13.9836 14.039 13.7442 14.0561 13.6246 14.0732V19.8171C13.8639 19.8342 14.0861 19.8513 14.2913 19.8513H15.1973C15.864 19.8513 16.5307 19.7487 17.1632 19.5435C17.7102 19.3897 18.1889 19.0649 18.5649 18.6375C18.9239 18.2102 19.0949 17.6289 19.0949 16.8768C19.112 16.3468 18.9752 15.8169 18.7017 15.3553C18.4167 14.9115 17.9975 14.5701 17.5051 14.3809ZM34.4289 0.5H7.93202C3.91475 0.5 0.666748 3.748 0.666748 7.76527V33.2347C0.666748 37.252 3.91475 40.5 7.93202 40.5H34.4289C38.4461 40.5 41.6941 37.252 41.6941 33.2347V7.76527C41.6941 3.748 38.4461 0.5 34.4289 0.5ZM21.7941 20.4154C21.1121 21.3727 20.1548 22.0907 19.0436 22.5009C17.8812 22.9283 16.5991 23.0822 15.1973 23.0822C14.787 23.0822 14.5135 23.0822 14.3425 23.0651C14.1716 23.048 13.9323 23.048 13.6075 23.048V28.5337C13.6246 28.6533 13.5391 28.7576 13.4194 28.7747H10.103C9.96629 28.7747 9.89791 28.7046 9.89791 28.5508V10.962C9.89791 10.8423 9.9492 10.7739 10.0689 10.7739C10.3595 10.7739 10.633 10.7739 11.0262 10.7568C11.4364 10.7398 11.8638 10.7398 12.3254 10.7227C12.7869 10.7056 13.2827 10.7056 13.8126 10.6885C14.3425 10.6714 14.8554 10.6714 15.3682 10.6714C16.77 10.6714 17.9324 10.8423 18.8897 11.2013C19.7445 11.4919 20.5308 11.9706 21.1804 12.6031C21.7275 13.1501 22.1548 13.8168 22.4284 14.5519C22.6831 15.2699 22.8198 16.0049 22.8198 16.7742C22.8215 18.2443 22.4796 19.4581 21.7941 20.4154ZM33.916 27.0652C33.4374 27.749 32.769 28.2773 32.0014 28.5884C31.1638 28.9457 30.1381 29.132 28.9056 29.132C28.1209 29.132 27.3499 29.0653 26.5824 28.9115C25.9841 28.8072 25.3858 28.6209 24.8387 28.3644C24.7191 28.2978 24.6319 28.1781 24.649 28.0413V25.0669C24.649 25.0173 24.6678 24.9472 24.7191 24.913C24.7686 24.8788 24.8216 24.8959 24.8729 24.9301C25.5396 25.3233 26.2405 25.5985 26.9927 25.7677C27.6405 25.9387 28.3243 26.0242 29.0098 26.0242C29.6594 26.0242 30.121 25.937 30.4287 25.7831C30.7022 25.6635 30.8903 25.3729 30.8903 25.0652C30.8903 24.8241 30.7535 24.6036 30.48 24.3814C30.2065 24.1608 29.6441 23.9044 28.8064 23.5762C27.9346 23.2685 27.1328 22.8582 26.379 22.3471C25.844 21.964 25.3999 21.4679 25.078 20.894C24.8063 20.3532 24.6719 19.7538 24.6866 19.1487C24.6866 18.4136 24.8917 17.7127 25.2695 17.0802C25.6969 16.3964 26.3277 15.8494 27.0627 15.5075C27.8645 15.0989 28.8731 14.9109 30.0868 14.9109C30.7877 14.9109 31.5057 14.9622 32.2066 15.0647C32.7194 15.1331 33.2151 15.2699 33.6767 15.4579C33.7434 15.475 33.8135 15.5434 33.8477 15.6118C33.8647 15.6801 33.8818 15.7485 33.8818 15.8169V18.6033C33.8818 18.6717 33.8476 18.7401 33.7964 18.7743C33.6425 18.8085 33.557 18.8085 33.4887 18.7743C32.9758 18.5008 32.4288 18.3127 31.8476 18.1931C31.2151 18.0563 30.5826 17.9708 29.933 17.9708C29.5911 17.9537 29.2321 18.005 28.9056 18.0905C28.685 18.1418 28.4953 18.2614 28.3756 18.4324C28.2901 18.5691 28.2389 18.7401 28.2389 18.8939C28.2389 19.0478 28.3072 19.2017 28.4115 19.3384C28.5654 19.5265 28.7688 19.6803 28.9927 19.8C29.3842 20.0051 29.7962 20.1931 30.2048 20.3641C31.1296 20.6718 32.0185 21.0992 32.8391 21.612C33.4032 21.9693 33.8647 22.4497 34.1878 23.0309C34.4614 23.5745 34.5981 24.1762 34.581 24.7899C34.5998 25.5951 34.3605 26.3968 33.916 27.0652Z" fill="#003464"/>
</svg>
