<svg width="18" height="21" viewBox="0 0 18 21" fill="none" xmlns="http://www.w3.org/2000/svg">
<path d="M0.0262146 0.745605L1.61275 18.6927L8.84352 20.7456L16.0454 18.6927L17.6632 0.745605H0.0262146ZM14.3291 5.00282L14.2137 6.13743L14.1728 6.60618H5.72573L5.92285 8.87061H13.9781L13.8988 9.45474L13.3892 15.2769L13.3483 15.6663L8.85314 16.9067V16.9139H8.82429L8.81708 16.9163V16.9139H8.81468L4.28102 15.6639L4.00698 12.1879H6.19689L6.35314 13.9475L8.81468 14.6134H8.82429L11.2762 13.9499L11.5503 11.099H8.81708V11.0966H3.8916L3.34352 5.00282L3.30266 4.41868H14.3676L14.3291 5.00282Z" fill="#120B67"/>
</svg>
