<svg width="42" height="41" viewBox="0 0 42 41" fill="none" xmlns="http://www.w3.org/2000/svg">
<path fill-rule="evenodd" clip-rule="evenodd" d="M21.0459 0.5C9.71642 0.5 0.540039 9.67638 0.540039 21.0059C0.540039 30.0797 6.40985 37.7438 14.5609 40.4608C15.5862 40.6403 15.9707 40.0251 15.9707 39.4868C15.9707 38.9998 15.9451 37.3849 15.9451 35.6676C10.793 36.616 9.4601 34.4116 9.04998 33.2581C8.81929 32.6686 7.81963 30.8487 6.94813 30.3617C6.23042 29.9772 5.20513 29.0288 6.92249 29.0032C8.53733 28.9775 9.69079 30.4898 10.0753 31.105C11.9208 34.2065 14.8685 33.335 16.0476 32.7968C16.227 31.4639 16.7653 30.5667 17.3549 30.0541C12.7923 29.5414 8.02468 27.7728 8.02468 19.9293C8.02468 17.6993 8.81929 15.8538 10.1265 14.4184C9.92148 13.9057 9.20377 11.8039 10.3316 8.98431C10.3316 8.98431 12.049 8.44603 15.9707 11.0862C17.6112 10.6248 19.3542 10.3941 21.0972 10.3941C22.8402 10.3941 24.5832 10.6248 26.2236 11.0862C30.1454 8.42039 31.8628 8.98431 31.8628 8.98431C32.9906 11.8039 32.2729 13.9057 32.0678 14.4184C33.3751 15.8538 34.1697 17.6737 34.1697 19.9293C34.1697 27.7984 29.3764 29.5414 24.8139 30.0541C25.5572 30.6949 26.198 31.9253 26.198 33.8477C26.198 36.5903 26.1724 38.7947 26.1724 39.4868C26.1724 40.0251 26.5569 40.6659 27.5822 40.4608C31.6529 39.0865 35.1902 36.4702 37.6961 32.9802C40.2021 29.4903 41.5506 25.3023 41.5518 21.0059C41.5518 9.67638 32.3754 0.5 21.0459 0.5Z" fill="black"/>
</svg>
