<svg width="42" height="41" viewBox="0 0 42 41" fill="none" xmlns="http://www.w3.org/2000/svg">
<path d="M32.1966 0.5H8.82906C6.48745 0.5 4.24174 1.4302 2.58597 3.08597C0.930202 4.74174 0 6.98745 0 9.32906L0 31.6709C0 34.0126 0.930202 36.2583 2.58597 37.914C4.24174 39.5698 6.48745 40.5 8.82906 40.5H32.1966C34.5382 40.5 36.7839 39.5698 38.4397 37.914C40.0954 36.2583 41.0256 34.0126 41.0256 31.6709V9.32906C41.0256 6.98745 40.0954 4.74174 38.4397 3.08597C36.7839 1.4302 34.5382 0.5 32.1966 0.5ZM21.759 28.6897H17.8496C17.5761 28.6897 17.3812 28.6795 17.2718 28.4966C16.9043 27.7803 16.5368 27.0692 16.1709 26.3632C15.7927 25.6369 15.4029 24.9165 15.0017 24.2026C14.5849 23.4635 14.1763 22.7199 13.7761 21.9718H13.7487C13.3782 22.7109 12.9975 23.4449 12.6068 24.1735C12.2137 24.9068 11.8222 25.6367 11.4376 26.3615C11.0533 27.0869 10.6596 27.8072 10.2564 28.5222C10.1812 28.688 10.053 28.7051 9.86837 28.7051H6.09914C6.02564 28.7051 5.98462 28.7342 5.97607 28.6607C5.96618 28.5935 5.98073 28.5249 6.01709 28.4675L11.3282 19.741L6.15385 10.9923C6.09744 10.9188 6.08889 10.859 6.1265 10.8094C6.14673 10.7857 6.17232 10.7671 6.20115 10.7552C6.22998 10.7433 6.26123 10.7385 6.29231 10.741H10.1726C10.2572 10.7375 10.3416 10.7515 10.4205 10.7821C10.486 10.8197 10.5421 10.8717 10.5846 10.9342C10.9145 11.6692 11.2821 12.4026 11.6855 13.1359C12.0889 13.8692 12.4974 14.594 12.9094 15.3103C13.3214 16.0265 13.7026 16.7513 14.0513 17.4846H14.0786C14.4427 16.7325 14.8137 15.9991 15.1932 15.2829C15.5726 14.5667 15.9573 13.847 16.3487 13.1222C16.7436 12.3957 17.1231 11.6744 17.4906 10.9615C17.511 10.8928 17.5487 10.8304 17.6 10.7803C17.6682 10.7464 17.7446 10.7322 17.8205 10.7393H21.4256C21.4662 10.7294 21.509 10.7359 21.5448 10.7574C21.5807 10.7788 21.6066 10.8134 21.6171 10.8538C21.6243 10.8829 21.6231 10.9134 21.6137 10.9418C21.6044 10.9702 21.5872 10.9955 21.5641 11.0145L21.5658 11.0214L16.4462 19.4709L21.9231 28.4436C21.959 28.5068 21.9675 28.5803 21.9504 28.6504C21.9333 28.712 21.8701 28.6709 21.759 28.6897ZM34.8889 27.9718C33.9942 28.3445 33.0625 28.6212 32.1094 28.7974C31.2372 28.9594 30.3521 29.0424 29.465 29.0453C28.1986 29.0639 26.9439 28.8012 25.7915 28.2761C24.7177 27.7789 23.8201 26.9677 23.2171 25.9496C22.5544 24.7617 22.2304 23.4148 22.2803 22.0556C22.2702 20.7924 22.5933 19.5489 23.2171 18.4504C23.8598 17.3314 24.8047 16.4161 25.9436 15.8094C27.3828 15.0573 29.0023 14.7189 30.6222 14.8316C30.7692 14.8402 30.9436 14.8538 31.1453 14.8726V9.45043C31.1453 9.32222 31.2 9.25726 31.3111 9.25726H34.7778C34.8163 9.2519 34.8554 9.26202 34.8865 9.28541C34.9175 9.30879 34.9381 9.34355 34.9436 9.38205C34.9453 9.39567 34.9453 9.40945 34.9436 9.42308V25.6915C34.9436 26.0043 34.9573 26.3427 34.9846 26.7103C35.012 27.0761 35.0359 27.406 35.053 27.7C35.0566 27.7566 35.0428 27.813 35.0134 27.8616C34.9841 27.9101 34.9407 27.9486 34.8889 27.9718ZM30.6889 18.0368C30.8427 18.0521 30.9949 18.0795 31.1436 18.1188V25.6316C30.9465 25.6903 30.7436 25.7269 30.5385 25.741C30.3002 25.7602 30.0612 25.7693 29.8222 25.7684C29.3406 25.7706 28.8617 25.6962 28.4034 25.5479C27.9702 25.4115 27.5746 25.1762 27.2479 24.8607C26.907 24.5172 26.6441 24.1045 26.4769 23.6504C26.2721 23.086 26.1741 22.4883 26.188 21.888C26.152 21.1229 26.3487 20.3648 26.7521 19.7137C27.1162 19.1735 27.6137 18.7376 28.1966 18.447C28.7949 18.1513 29.4547 17.9991 30.1231 18.006C30.3128 18.0094 30.5009 18.0179 30.6889 18.0368Z" fill="#9B0095"/>
</svg>
