<svg width="23" height="23" viewBox="0 0 23 23" fill="currentColor" xmlns="http://www.w3.org/2000/svg">
<path d="M10.7935 0.24229C10.9954 0.0852573 11.2438 0 11.4996 0C11.7554 0 12.0038 0.0852573 12.2057 0.24229L21.6675 7.60203C22.0825 7.92482 22.4182 8.33818 22.649 8.81053C22.8798 9.28288 22.9996 9.80172 22.9992 10.3274V20.7001C22.9992 21.3101 22.7569 21.895 22.3256 22.3264C21.8943 22.7577 21.3093 23 20.6993 23H16.0994C15.4895 23 14.9045 22.7577 14.4732 22.3264C14.0418 21.895 13.7995 21.3101 13.7995 20.7001V13.8003H9.19968V20.7001C9.19968 21.3101 8.95737 21.895 8.52605 22.3264C8.09473 22.7577 7.50974 23 6.89976 23H2.29992C1.68994 23 1.10495 22.7577 0.673631 22.3264C0.242312 21.895 0 21.3101 0 20.7001V10.3274C0 9.26028 0.492183 8.25751 1.33395 7.60203L10.7935 0.24229V0.24229ZM11.4996 2.60661L2.7438 9.41667C2.60518 9.52451 2.4931 9.66266 2.41615 9.82053C2.33921 9.97841 2.29945 10.1518 2.29992 10.3274V20.7001H6.89976V13.8003C6.89976 13.1903 7.14207 12.6053 7.57339 12.174C8.00471 11.7427 8.5897 11.5004 9.19968 11.5004H13.7995C14.4095 11.5004 14.9945 11.7427 15.4258 12.174C15.8571 12.6053 16.0994 13.1903 16.0994 13.8003V20.7001H20.6993V10.3274C20.6998 10.1518 20.66 9.97841 20.583 9.82053C20.5061 9.66266 20.394 9.52451 20.2554 9.41667L11.4996 2.60891V2.60661Z" fill="currentColor"/>
</svg>
