<svg width="36" height="41" viewBox="0 0 36 41" fill="none" xmlns="http://www.w3.org/2000/svg">
<path d="M3.94002 36.5014L0.731445 0.5H36L32.7872 36.4957L18.3443 40.5L3.94002 36.5014Z" fill="#1572B6"/>
<path d="M18.3657 37.4401L30.0372 34.2043L32.7829 3.44434H18.3657V37.4401Z" fill="#33A9DC"/>
<path d="M18.3657 16.4871H24.2086L24.6114 11.9657H18.3657V7.54999H29.4372L29.3314 8.73427L28.2472 20.9028H18.3657V16.4871Z" fill="white"/>
<path d="M18.3929 27.9543L18.3729 27.96L13.4558 26.6315L13.1415 23.11H8.70862L9.32719 30.0429L18.3715 32.5543L18.3929 32.5486V27.9543Z" fill="#EBEBEB"/>
<path d="M23.8329 20.7156L23.3015 26.6285L18.3772 27.9571V32.5514L27.4286 30.0428L27.4958 29.2971L28.2629 20.7156H23.8329Z" fill="white"/>
<path d="M18.3815 7.54999V11.9657H7.71578L7.62721 10.9728L7.42578 8.73427L7.32007 7.54999H18.3815Z" fill="#EBEBEB"/>
<path d="M18.3657 16.4871V20.9028H13.51L13.4214 19.91L13.2214 17.6714L13.1157 16.4871H18.3657Z" fill="#EBEBEB"/>
</svg>
