<svg width="23" height="23" viewBox="0 0 23 23" fill="none" xmlns="http://www.w3.org/2000/svg">
<path d="M21.9274 4.73314L21.2825 4.3553C21.3798 3.96432 21.3798 3.55492 21.2825 3.16394L21.9274 2.7861C22.0024 2.74285 22.0682 2.68499 22.121 2.61584C22.1738 2.54669 22.2126 2.46762 22.2352 2.38318C22.2578 2.29873 22.2637 2.21059 22.2526 2.12383C22.2415 2.03706 22.2136 1.95338 22.1705 1.8776C22.1274 1.80183 22.0699 1.73546 22.0014 1.68231C21.9329 1.62916 21.8548 1.59028 21.7714 1.56792C21.6881 1.54555 21.6012 1.54014 21.5158 1.552C21.4303 1.56385 21.3481 1.59273 21.2737 1.63698L20.6273 2.01571C20.3427 1.73483 19.994 1.53003 19.6122 1.4197V0.663463C19.6122 0.487501 19.5433 0.318747 19.4207 0.194324C19.2981 0.0699003 19.1319 0 18.9585 0C18.7851 0 18.6188 0.0699003 18.4962 0.194324C18.3736 0.318747 18.3047 0.487501 18.3047 0.663463V1.41959C17.923 1.52995 17.5742 1.73479 17.2897 2.01571L16.6433 1.63698C16.5689 1.59273 16.4866 1.56385 16.4012 1.552C16.3158 1.54014 16.2289 1.54555 16.1455 1.56792C16.0622 1.59028 15.984 1.62916 15.9155 1.68231C15.847 1.73546 15.7896 1.80183 15.7465 1.8776C15.7034 1.95338 15.6755 2.03706 15.6643 2.12383C15.6532 2.21059 15.6591 2.29873 15.6817 2.38318C15.7043 2.46762 15.7431 2.54669 15.796 2.61584C15.8488 2.68499 15.9146 2.74285 15.9895 2.7861L16.6344 3.16394C16.5371 3.55492 16.5371 3.96432 16.6344 4.3553L15.9895 4.73314C15.9146 4.77639 15.8488 4.83425 15.796 4.90341C15.7431 4.97256 15.7043 5.05163 15.6817 5.13607C15.6591 5.22051 15.6532 5.30865 15.6643 5.39542C15.6755 5.48219 15.7034 5.56587 15.7465 5.64164C15.7896 5.71742 15.847 5.78379 15.9155 5.83694C15.984 5.89009 16.0622 5.92896 16.1455 5.95133C16.2289 5.97369 16.3158 5.9791 16.4012 5.96725C16.4866 5.9554 16.5689 5.92651 16.6433 5.88226L17.2897 5.50353C17.5742 5.78442 17.923 5.98921 18.3047 6.09955V6.85578C18.3047 7.03174 18.3736 7.2005 18.4962 7.32492C18.6188 7.44934 18.7851 7.51924 18.9585 7.51924C19.1319 7.51924 19.2981 7.44934 19.4207 7.32492C19.5433 7.2005 19.6122 7.03174 19.6122 6.85578V6.09966C19.994 5.98929 20.3428 5.78446 20.6273 5.50353L21.2737 5.88226C21.3481 5.92651 21.4303 5.9554 21.5158 5.96725C21.6012 5.9791 21.6881 5.97369 21.7714 5.95133C21.8548 5.92896 21.9329 5.89009 22.0014 5.83694C22.0699 5.78379 22.1274 5.71742 22.1705 5.64164C22.2136 5.56587 22.2415 5.48219 22.2526 5.39542C22.2637 5.30865 22.2578 5.22051 22.2352 5.13607C22.2126 5.05163 22.1738 4.97256 22.121 4.90341C22.0682 4.83425 22.0024 4.77639 21.9274 4.73314ZM18.9585 4.86539C18.743 4.86539 18.5323 4.80054 18.3531 4.67904C18.174 4.55753 18.0343 4.38484 17.9518 4.18278C17.8694 3.98073 17.8478 3.7584 17.8898 3.5439C17.9319 3.3294 18.0357 3.13237 18.188 2.97772C18.3404 2.82308 18.5346 2.71776 18.7459 2.6751C18.9573 2.63243 19.1763 2.65433 19.3754 2.73802C19.5745 2.82172 19.7447 2.96345 19.8644 3.14529C19.9841 3.32713 20.048 3.54092 20.048 3.75962C20.0477 4.05279 19.9328 4.33386 19.7286 4.54116C19.5243 4.74847 19.2474 4.86507 18.9585 4.86539ZM21.4217 9.79072C21.3364 9.80105 21.254 9.82833 21.1791 9.87099C21.1043 9.91365 21.0384 9.97085 20.9853 10.0393C20.9323 10.1078 20.893 10.1863 20.8698 10.2702C20.8466 10.354 20.8399 10.4418 20.8501 10.5283C20.8964 10.9242 20.9197 11.3225 20.9197 11.7212C20.9214 14.2557 19.9668 16.6947 18.2518 18.5371C17.2243 16.9163 15.6889 15.6938 13.8932 15.0667C14.7884 14.4612 15.4678 13.5795 15.8311 12.5519C16.1944 11.5243 16.2223 10.4053 15.9106 9.36037C15.599 8.31544 14.9643 7.4 14.1004 6.74938C13.2366 6.09876 12.1893 5.74749 11.1136 5.74749C10.0378 5.74749 8.99062 6.09876 8.12675 6.74938C7.26288 7.4 6.6282 8.31544 6.31653 9.36037C6.00487 10.4053 6.03275 11.5243 6.39606 12.5519C6.75937 13.5795 7.43883 14.4612 8.33399 15.0667C6.53825 15.6938 5.00289 16.9163 3.9754 18.5371C2.6627 17.1234 1.78664 15.3505 1.45537 13.4372C1.12409 11.524 1.35209 9.55416 2.11123 7.77092C2.87037 5.98767 4.12741 4.46905 5.7272 3.4025C7.32699 2.33596 9.1995 1.76817 11.1136 1.76923C11.4174 1.76923 11.7237 1.7835 12.0243 1.81158C12.1969 1.82771 12.3688 1.77358 12.5021 1.66108C12.6355 1.54858 12.7193 1.38693 12.7352 1.2117C12.7511 1.03648 12.6977 0.862017 12.5869 0.726707C12.476 0.591396 12.3168 0.506318 12.1441 0.490188C11.8015 0.458265 11.4576 0.442288 11.1136 0.442308C8.87289 0.441261 6.68426 1.12794 4.83508 2.41217C2.9859 3.6964 1.56262 5.51814 0.752144 7.63819C-0.0583359 9.75824 -0.218131 12.0775 0.293742 14.2914C0.805616 16.5053 1.96523 18.5103 3.62031 20.0432C3.65776 20.0877 3.70089 20.1269 3.74855 20.1598C5.77832 21.9895 8.39888 23 11.1137 23C13.8286 23 16.4491 21.9894 18.4788 20.1596C18.5263 20.1268 18.5692 20.0878 18.6065 20.0435C19.7477 18.9886 20.6592 17.7034 21.2826 16.2703C21.9061 14.8372 22.2278 13.2877 22.2272 11.7212C22.2272 11.2699 22.2008 10.819 22.1483 10.3709C22.1381 10.2844 22.1113 10.2007 22.0692 10.1248C22.0272 10.0488 21.9708 9.98192 21.9033 9.92804C21.8359 9.87416 21.7586 9.8343 21.6759 9.81074C21.5932 9.78718 21.5068 9.78038 21.4216 9.79072H21.4217ZM7.40906 10.8366C7.40906 10.093 7.62633 9.36609 8.03339 8.74782C8.44044 8.12956 9.01901 7.64768 9.69593 7.36312C10.3728 7.07856 11.1177 7.00411 11.8363 7.14918C12.5549 7.29424 13.215 7.65231 13.7331 8.1781C14.2512 8.7039 14.604 9.3738 14.7469 10.1031C14.8899 10.8324 14.8165 11.5883 14.5361 12.2753C14.2557 12.9623 13.7809 13.5495 13.1717 13.9626C12.5625 14.3757 11.8463 14.5962 11.1136 14.5962C10.1314 14.595 9.18982 14.1986 8.49533 13.4938C7.80084 12.7889 7.41018 11.8333 7.40906 10.8366ZM4.95132 19.4564C5.59129 18.3784 6.49497 17.4865 7.57467 16.8674C8.65437 16.2484 9.87342 15.923 11.1135 15.923C12.3536 15.923 13.5727 16.2484 14.6524 16.8674C15.7321 17.4865 16.6358 18.3784 17.2757 19.4564C15.5329 20.8904 13.3573 21.6731 11.1135 21.6731C8.86979 21.6731 6.69421 20.8904 4.95132 19.4564Z" fill="#D3D3D3"/>
</svg>
