<?xml version="1.0" encoding="UTF-8" standalone="no"?>
<svg
   xmlns:dc="http://purl.org/dc/elements/1.1/"
   xmlns:cc="http://creativecommons.org/ns#"
   xmlns:rdf="http://www.w3.org/1999/02/22-rdf-syntax-ns#"
   xmlns:svg="http://www.w3.org/2000/svg"
   xmlns="http://www.w3.org/2000/svg"
   xmlns:sodipodi="http://sodipodi.sourceforge.net/DTD/sodipodi-0.dtd"
   xmlns:inkscape="http://www.inkscape.org/namespaces/inkscape"
   width="19.623146mm"
   height="26.458334mm"
   viewBox="0 0 19.623146 26.458334"
   version="1.1"
   id="svg1047"
   inkscape:version="1.0.1 (3bc2e813f5, 2020-09-07)"
   sodipodi:docname="WLARA_Compact_Logo_White.svg">
  <defs
     id="defs1041">
    <rect
       x="-106.3625"
       y="16.404167"
       width="24.642353"
       height="7.277463"
       id="rect1791" />
    <rect
       x="-106.3625"
       y="16.404167"
       width="24.642353"
       height="7.277463"
       id="rect1619" />
    <rect
       id="rect1791-9"
       height="7.277463"
       width="24.642353"
       y="16.404167"
       x="-106.3625" />
    <rect
       id="rect1622"
       height="7.277463"
       width="24.642353"
       y="16.404167"
       x="-106.3625" />
    <rect
       id="rect1791-5"
       height="7.277463"
       width="24.642353"
       y="16.404167"
       x="-106.3625" />
    <rect
       id="rect1625"
       height="7.277463"
       width="24.642353"
       y="16.404167"
       x="-106.3625" />
  </defs>
  <sodipodi:namedview
     id="base"
     pagecolor="#d4d4d4"
     bordercolor="#666666"
     borderopacity="1.0"
     inkscape:pageopacity="0"
     inkscape:pageshadow="2"
     inkscape:zoom="1.4142136"
     inkscape:cx="136.40296"
     inkscape:cy="139.71345"
     inkscape:document-units="mm"
     inkscape:current-layer="layer1"
     inkscape:document-rotation="0"
     showgrid="false"
     inkscape:window-width="1920"
     inkscape:window-height="1013"
     inkscape:window-x="-9"
     inkscape:window-y="-9"
     inkscape:window-maximized="1"
     showguides="true"
     inkscape:guide-bbox="true"
     fit-margin-top="0"
     fit-margin-left="0"
     fit-margin-right="0"
     fit-margin-bottom="0" />
  <metadata
     id="metadata1044">
    <rdf:RDF>
      <cc:Work
         rdf:about="">
        <dc:format>image/svg+xml</dc:format>
        <dc:type
           rdf:resource="http://purl.org/dc/dcmitype/StillImage" />
        <dc:title />
      </cc:Work>
    </rdf:RDF>
  </metadata>
  <g
     inkscape:label="Capa 1"
     inkscape:groupmode="layer"
     id="layer1"
     transform="translate(-19.023242,-2.5611783)">
    <path
       id="path2187-9"
       style="fill:#ffffff;fill-opacity:1;stroke:none;stroke-width:0.0661455px;stroke-linecap:butt;stroke-linejoin:miter;stroke-opacity:1"
       d="M 28.181179,2.5612783 19.023242,18.423431 a 6.708496,6.708496 0 0 1 5.1892,6.534203 6.708496,6.708496 0 0 1 -0.151156,1.416058 h 2.796984 l 1.984362,-3.968735 1.984364,3.968735 h 2.799953 a 6.72653,6.72653 0 0 1 -0.154385,-1.432851 6.72653,6.72653 0 0 1 5.173824,-6.544795 L 29.504086,2.5612783 V 13.140823 a 3.0494882,3.0494882 0 0 1 2.390805,2.977459 3.0494882,3.0494882 0 0 1 -1.067895,2.317813 l -1.984364,-3.968614 -1.982686,3.965386 -0.0021,0.0035 v -0.005 a 3.0494882,3.0494882 0 0 1 -1.062331,-2.313028 3.0494882,3.0494882 0 0 1 2.385249,-2.976303 z"
       inkscape:export-filename="B:\WLARA\WLARA Design\WLARA - LOGO REDESIGN\4. Images\3. Compact logo\WLARA_Compact_Logo_White.png"
       inkscape:export-xdpi="480"
       inkscape:export-ydpi="480" />
    <path
       id="path2189-7"
       style="fill:#ffffff;fill-opacity:1;stroke:none;stroke-width:0.0661455px;stroke-linecap:butt;stroke-linejoin:miter;stroke-opacity:1"
       d="m 23.882618,27.696602 a 6.708496,6.708496 0 0 1 -0.595955,1.32291 h 11.118656 a 6.72653,6.72653 0 0 1 -0.598407,-1.32291 z"
       inkscape:export-filename="B:\WLARA\WLARA Design\WLARA - LOGO REDESIGN\4. Images\3. Compact logo\WLARA_Compact_Logo_White.png"
       inkscape:export-xdpi="480"
       inkscape:export-ydpi="480" />
    <text
       xml:space="preserve"
       style="font-style:normal;font-weight:normal;font-size:10.5833px;line-height:1.25;font-family:sans-serif;fill:#000000;fill-opacity:1;stroke:none;stroke-width:0.264583"
       x="514.87915"
       y="93.133331"
       id="text2329"><tspan
         sodipodi:role="line"
         id="tspan2327"
         x="514.87915"
         y="93.133331"
         style="stroke-width:0.264583" /></text>
  </g>
</svg>
